<svg width="164" height="23" viewBox="0 0 164 23" fill="none" xmlns="http://www.w3.org/2000/svg">
    <path d="M7.1227 22.54C6.0227 22.54 4.9027 22.4 3.7627 22.12C2.6227 21.86 1.6727 21.51 0.912695 21.07L1.0627 16.99H1.3627L2.2927 18.94C2.5727 19.5 2.8727 20 3.1927 20.44C3.5127 20.86 3.9527 21.19 4.5127 21.43C4.9127 21.63 5.2927 21.77 5.6527 21.85C6.0327 21.91 6.4527 21.94 6.9127 21.94C8.1327 21.94 9.0927 21.61 9.7927 20.95C10.5127 20.29 10.8727 19.44 10.8727 18.4C10.8727 17.42 10.6327 16.66 10.1527 16.12C9.6727 15.56 8.9027 15.02 7.8427 14.5L6.6127 13.96C4.8927 13.2 3.5427 12.33 2.5627 11.35C1.6027 10.35 1.1227 9.03 1.1227 7.39C1.1227 6.21 1.4227 5.19 2.0227 4.33C2.6427 3.47 3.4927 2.81 4.5727 2.35C5.6727 1.89 6.9527 1.66 8.4127 1.66C9.4727 1.66 10.4727 1.8 11.4127 2.08C12.3727 2.36 13.2027 2.74 13.9027 3.22L13.7227 6.82H13.4227L12.1927 4.57C11.8527 3.87 11.5127 3.38 11.1727 3.1C10.8327 2.8 10.4427 2.59 10.0027 2.47C9.7427 2.39 9.5027 2.34 9.2827 2.32C9.0627 2.28 8.7827 2.26 8.4427 2.26C7.4227 2.26 6.5627 2.56 5.8627 3.16C5.1627 3.74 4.8127 4.53 4.8127 5.53C4.8127 6.55 5.0827 7.37 5.6227 7.99C6.1627 8.59 6.9527 9.13 7.9927 9.61L9.3727 10.21C11.2927 11.05 12.6727 11.95 13.5127 12.91C14.3527 13.85 14.7727 15.07 14.7727 16.57C14.7727 18.33 14.1027 19.77 12.7627 20.89C11.4427 21.99 9.5627 22.54 7.1227 22.54ZM21.6643 22.45C20.3843 22.45 19.3843 22.13 18.6643 21.49C17.9643 20.85 17.6143 19.83 17.6143 18.43V8.17H15.5443V7.87L16.2643 7.75C16.8843 7.61 17.4143 7.41 17.8543 7.15C18.3143 6.89 18.7643 6.54 19.2043 6.1L21.6643 3.37H21.9643L21.8743 7.57H25.2343V8.17H21.8443V18.97C21.8443 19.67 21.9943 20.2 22.2943 20.56C22.6143 20.92 23.0143 21.1 23.4943 21.1C23.9143 21.1 24.2843 21 24.6043 20.8C24.9243 20.58 25.2443 20.29 25.5643 19.93L25.8643 20.23C25.4643 20.91 24.9143 21.45 24.2143 21.85C23.5143 22.25 22.6643 22.45 21.6643 22.45ZM43.7173 22.54C41.7773 22.54 40.0173 22.15 38.4373 21.37C36.8773 20.57 35.6373 19.39 34.7173 17.83C33.7973 16.27 33.3373 14.36 33.3373 12.1C33.3373 10.38 33.6173 8.87 34.1773 7.57C34.7373 6.27 35.4973 5.18 36.4573 4.3C37.4373 3.42 38.5573 2.76 39.8173 2.32C41.0973 1.88 42.4473 1.66 43.8673 1.66C45.0073 1.66 46.0573 1.79 47.0173 2.05C47.9773 2.31 48.8773 2.67 49.7173 3.13L49.8373 6.82H49.5373L48.0373 4.42C47.8373 4.04 47.6173 3.7 47.3773 3.4C47.1373 3.08 46.8373 2.84 46.4773 2.68C46.1773 2.54 45.8773 2.44 45.5773 2.38C45.2973 2.3 44.9373 2.26 44.4973 2.26C43.3373 2.26 42.2773 2.57 41.3173 3.19C40.3773 3.81 39.6173 4.84 39.0373 6.28C38.4773 7.7 38.1973 9.65 38.1973 12.13C38.1973 14.59 38.4673 16.54 39.0073 17.98C39.5473 19.4 40.2773 20.42 41.1973 21.04C42.1373 21.64 43.1873 21.94 44.3473 21.94C44.9873 21.94 45.4973 21.9 45.8773 21.82C46.2573 21.72 46.6373 21.58 47.0173 21.4C47.3973 21.24 47.6873 21.01 47.8873 20.71C48.0873 20.39 48.2673 20.05 48.4273 19.69L49.7473 16.75H50.0473L49.9573 21.04C49.1173 21.48 48.1773 21.84 47.1373 22.12C46.0973 22.4 44.9573 22.54 43.7173 22.54ZM55.7935 22.45C54.6335 22.45 53.6535 22.12 52.8535 21.46C52.0735 20.8 51.6835 19.85 51.6835 18.61C51.6835 17.67 52.1635 16.81 53.1235 16.03C54.0835 15.23 55.5935 14.63 57.6535 14.23C57.9735 14.17 58.3335 14.11 58.7335 14.05C59.1335 13.97 59.5535 13.89 59.9935 13.81V11.44C59.9935 10.08 59.8235 9.13 59.4835 8.59C59.1635 8.03 58.6535 7.75 57.9535 7.75C57.4735 7.75 57.0935 7.91 56.8135 8.23C56.5335 8.53 56.3535 9.06 56.2735 9.82L56.2135 10.15C56.1735 11.01 55.9635 11.64 55.5835 12.04C55.2035 12.44 54.7335 12.64 54.1735 12.64C53.6535 12.64 53.2235 12.48 52.8835 12.16C52.5435 11.84 52.3735 11.41 52.3735 10.87C52.3735 10.05 52.6535 9.36 53.2135 8.8C53.7935 8.24 54.5535 7.82 55.4935 7.54C56.4335 7.26 57.4535 7.12 58.5535 7.12C60.3335 7.12 61.7035 7.56 62.6635 8.44C63.6435 9.3 64.1335 10.71 64.1335 12.67V19.3C64.1335 20.2 64.5535 20.65 65.3935 20.65H66.0535L66.3235 20.89C65.9435 21.37 65.5235 21.74 65.0635 22C64.6235 22.26 63.9935 22.39 63.1735 22.39C62.2935 22.39 61.5935 22.19 61.0735 21.79C60.5735 21.37 60.2435 20.82 60.0835 20.14C59.4835 20.78 58.8635 21.33 58.2235 21.79C57.6035 22.23 56.7935 22.45 55.7935 22.45ZM57.6235 20.62C58.0235 20.62 58.3935 20.53 58.7335 20.35C59.0935 20.15 59.5135 19.85 59.9935 19.45V14.41C59.7935 14.45 59.5935 14.49 59.3935 14.53C59.1935 14.57 58.9635 14.61 58.7035 14.65C57.7835 14.89 57.0435 15.3 56.4835 15.88C55.9435 16.44 55.6735 17.2 55.6735 18.16C55.6735 18.98 55.8635 19.6 56.2435 20.02C56.6235 20.42 57.0835 20.62 57.6235 20.62ZM72.6408 22.45C71.3608 22.45 70.3608 22.13 69.6408 21.49C68.9408 20.85 68.5908 19.83 68.5908 18.43V8.17H66.5208V7.87L67.2408 7.75C67.8608 7.61 68.3908 7.41 68.8308 7.15C69.2908 6.89 69.7408 6.54 70.1808 6.1L72.6408 3.37H72.9408L72.8508 7.57H76.2108V8.17H72.8208V18.97C72.8208 19.67 72.9708 20.2 73.2708 20.56C73.5908 20.92 73.9908 21.1 74.4708 21.1C74.8908 21.1 75.2608 21 75.5808 20.8C75.9008 20.58 76.2208 20.29 76.5408 19.93L76.8408 20.23C76.4408 20.91 75.8908 21.45 75.1908 21.85C74.4908 22.25 73.6408 22.45 72.6408 22.45ZM77.8707 22V21.7L78.2307 21.58C78.9507 21.34 79.3107 20.84 79.3107 20.08V4.06C79.3107 3.64 79.2407 3.33 79.1007 3.13C78.9607 2.93 78.6907 2.78 78.2907 2.68L77.8407 2.56V2.26L83.1207 0.969999L83.6007 1.24L83.4807 5.47V9.22C84.1807 8.64 84.9307 8.15 85.7307 7.75C86.5507 7.33 87.4507 7.12 88.4307 7.12C89.7307 7.12 90.7607 7.49 91.5207 8.23C92.3007 8.97 92.6907 10.11 92.6907 11.65V20.11C92.6907 20.51 92.7707 20.83 92.9307 21.07C93.0907 21.31 93.3707 21.49 93.7707 21.61L94.0107 21.7V22H86.9907V21.7L87.3507 21.61C88.0707 21.37 88.4307 20.86 88.4307 20.08V10.66C88.4307 9.86 88.2907 9.31 88.0107 9.01C87.7507 8.71 87.2807 8.56 86.6007 8.56C86.1607 8.56 85.6807 8.65 85.1607 8.83C84.6407 8.99 84.1107 9.28 83.5707 9.7V20.14C83.5707 20.92 83.9307 21.42 84.6507 21.64L84.8907 21.7V22H77.8707ZM102.713 7.12C104.013 7.12 105.123 7.39 106.043 7.93C106.963 8.45 107.663 9.17 108.143 10.09C108.643 10.99 108.893 12.02 108.893 13.18C108.893 13.4 108.883 13.63 108.863 13.87C108.843 14.09 108.803 14.29 108.743 14.47H99.803C99.823 16.63 100.203 18.19 100.943 19.15C101.703 20.09 102.823 20.56 104.303 20.56C105.303 20.56 106.113 20.4 106.733 20.08C107.353 19.76 107.933 19.29 108.473 18.67L108.773 18.94C108.153 20.04 107.323 20.9 106.283 21.52C105.263 22.14 104.033 22.45 102.593 22.45C101.173 22.45 99.913 22.15 98.813 21.55C97.713 20.93 96.853 20.05 96.233 18.91C95.613 17.77 95.303 16.41 95.303 14.83C95.303 13.19 95.663 11.8 96.383 10.66C97.103 9.5 98.023 8.62 99.143 8.02C100.283 7.42 101.473 7.12 102.713 7.12ZM102.623 7.72C102.043 7.72 101.543 7.9 101.123 8.26C100.723 8.6 100.403 9.22 100.163 10.12C99.943 11 99.823 12.25 99.803 13.87H104.933C105.133 11.69 105.053 10.12 104.693 9.16C104.333 8.2 103.643 7.72 102.623 7.72ZM110.388 22V21.7L110.838 21.58C111.238 21.46 111.508 21.28 111.648 21.04C111.808 20.8 111.888 20.49 111.888 20.11V10.72C111.888 10.28 111.808 9.96 111.648 9.76C111.508 9.54 111.238 9.39 110.838 9.31L110.388 9.19V8.89L115.548 7.15L115.848 7.45L116.118 10.03V10.27C116.398 9.71 116.758 9.2 117.198 8.74C117.658 8.26 118.158 7.87 118.698 7.57C119.258 7.27 119.808 7.12 120.348 7.12C121.108 7.12 121.688 7.33 122.088 7.75C122.488 8.17 122.688 8.7 122.688 9.34C122.688 10.02 122.488 10.55 122.088 10.93C121.708 11.29 121.248 11.47 120.708 11.47C119.868 11.47 119.128 11.05 118.488 10.21L118.428 10.15C118.228 9.87 117.998 9.72 117.738 9.7C117.478 9.66 117.238 9.78 117.018 10.06C116.818 10.24 116.648 10.46 116.508 10.72C116.388 10.96 116.268 11.24 116.148 11.56V19.93C116.148 20.73 116.498 21.23 117.198 21.43L118.158 21.7V22H110.388ZM127.23 5.56C126.55 5.56 125.97 5.35 125.49 4.93C125.03 4.49 124.8 3.94 124.8 3.28C124.8 2.6 125.03 2.05 125.49 1.63C125.97 1.21 126.55 0.999999 127.23 0.999999C127.91 0.999999 128.48 1.21 128.94 1.63C129.4 2.05 129.63 2.6 129.63 3.28C129.63 3.94 129.4 4.49 128.94 4.93C128.48 5.35 127.91 5.56 127.23 5.56ZM123.69 22V21.7L124.11 21.58C124.51 21.46 124.78 21.28 124.92 21.04C125.08 20.8 125.16 20.48 125.16 20.08V10.69C125.16 10.27 125.08 9.96 124.92 9.76C124.78 9.54 124.51 9.39 124.11 9.31L123.69 9.22V8.92L129.18 7.15L129.48 7.45L129.39 11.71V20.11C129.39 20.51 129.46 20.83 129.6 21.07C129.76 21.31 130.03 21.49 130.41 21.61L130.71 21.7V22H123.69ZM132.038 22V21.7L132.458 21.58C133.158 21.38 133.508 20.89 133.508 20.11V10.72C133.508 10.28 133.438 9.96 133.298 9.76C133.158 9.54 132.888 9.39 132.488 9.31L132.038 9.19V8.89L137.168 7.15L137.468 7.45L137.708 9.25C138.408 8.63 139.198 8.12 140.078 7.72C140.958 7.32 141.828 7.12 142.688 7.12C144.008 7.12 145.018 7.48 145.718 8.2C146.438 8.92 146.798 10.02 146.798 11.5V20.14C146.798 20.92 147.178 21.41 147.938 21.61L148.208 21.7V22H141.128V21.7L141.518 21.58C142.218 21.36 142.568 20.87 142.568 20.11V10.54C142.568 9.26 141.928 8.62 140.648 8.62C139.768 8.62 138.808 9.06 137.768 9.94V20.14C137.768 20.92 138.118 21.41 138.818 21.61L139.088 21.7V22H132.038ZM156.912 7.12C158.212 7.12 159.322 7.39 160.242 7.93C161.162 8.45 161.862 9.17 162.342 10.09C162.842 10.99 163.092 12.02 163.092 13.18C163.092 13.4 163.082 13.63 163.062 13.87C163.042 14.09 163.002 14.29 162.942 14.47H154.002C154.022 16.63 154.402 18.19 155.142 19.15C155.902 20.09 157.022 20.56 158.502 20.56C159.502 20.56 160.312 20.4 160.932 20.08C161.552 19.76 162.132 19.29 162.672 18.67L162.972 18.94C162.352 20.04 161.522 20.9 160.482 21.52C159.462 22.14 158.232 22.45 156.792 22.45C155.372 22.45 154.112 22.15 153.012 21.55C151.912 20.93 151.052 20.05 150.432 18.91C149.812 17.77 149.502 16.41 149.502 14.83C149.502 13.19 149.862 11.8 150.582 10.66C151.302 9.5 152.222 8.62 153.342 8.02C154.482 7.42 155.672 7.12 156.912 7.12ZM156.822 7.72C156.242 7.72 155.742 7.9 155.322 8.26C154.922 8.6 154.602 9.22 154.362 10.12C154.142 11 154.022 12.25 154.002 13.87H159.132C159.332 11.69 159.252 10.12 158.892 9.16C158.532 8.2 157.842 7.72 156.822 7.72Z"
          fill="white"/>
</svg>
